<svg width="24" height="24" viewBox="0 0 24 24" fill="none" xmlns="http://www.w3.org/2000/svg">
<g clip-path="url(#clip0_4554_110)">
<g clip-path="url(#clip1_4554_110)">
<path d="M5.61682 2.00293L19.8746 5.125H21.4176V22H5.24573C4.97637 22 4.71804 21.893 4.52757 21.7025C4.33711 21.5121 4.2301 21.2537 4.2301 20.9844V16.7323L5.58686 2.04709L5.61682 2.00293Z" fill="#5B5B5B"/>
<path d="M5.61682 2H19.0153C19.2846 2 19.5429 2.107 19.7334 2.29747C19.9239 2.48794 20.0309 2.74626 20.0309 3.01562V16.0625H5.61682V2Z" fill="#828282"/>
<path d="M2.56995 17.8984L5.61682 16.0625V2L2.56995 3.83594V17.8984Z" fill="#ADADAD"/>
<path d="M10.854 19.7554H9.96807L9.80352 20.4009H9.06946L9.91321 17.4478H10.8962L11.7863 20.4009H11.0354L10.854 19.7554ZM10.4026 17.9329L10.1031 19.207H10.7106L10.4026 17.9329Z" fill="white"/>
<path d="M13.1823 19.2239V20.4009H12.444V19.2281L11.5116 17.4478H12.2879L12.8279 18.6923L13.3637 17.4478H14.1104L13.1823 19.2239Z" fill="white"/>
<path d="M15.6417 19.7554H14.7558L14.5912 20.4009H13.8572L14.7009 17.4478H15.6839L16.5741 20.4009H15.8231L15.6417 19.7554ZM15.1903 17.9329L14.8908 19.207H15.4983L15.1903 17.9329Z" fill="white"/>
<path d="M16.8429 5.14692V12.94H14.9949V7.90788L13.6923 12.9288V12.94H11.8554L10.4749 7.70749V12.94H8.80493V5.14692H11.2542L12.8239 11.4036L14.4716 5.16917L14.4605 5.14691L16.8429 5.14692Z" fill="white"/>
</g>
</g>
<defs>
<clipPath id="clip0_4554_110">
<rect width="20" height="20" fill="white" transform="translate(2 2)"/>
</clipPath>
<clipPath id="clip1_4554_110">
<rect width="18.8477" height="20" fill="white" transform="translate(2.56995 2)"/>
</clipPath>
</defs>
</svg>
